<svg xmlns="http://www.w3.org/2000/svg" width="239.846" height="239.697" viewBox="0 0 239.846 239.697">
  <g id="noun_Search_1773648" transform="translate(-104.99 -105.18)">
    <g id="Group_1281" data-name="Group 1281" transform="translate(104.99 105.18)">
      <g id="Group_1280" data-name="Group 1280" transform="translate(0 0)">
        <path id="Path_2236" data-name="Path 2236" d="M271.1,143.359c1.827,1.856,3.6,3.74,5.3,5.714.737.884,1.474,1.738,2.181,2.651.177.206.354.442.53.677-.766-1.09-.324-.412-.147-.177.413.56.855,1.119,1.267,1.708a96.423,96.423,0,0,1,7.662,12.488c.56,1.119,1.12,2.209,1.621,3.358.236.5.471,1,.678,1.5.118.265.206.5.324.766.59,1.326-.5-1.207.059.118.884,2.15,1.68,4.33,2.417,6.539a95.536,95.536,0,0,1,3.477,14.02q.132.8.265,1.591c.059.324.088.677.147,1,.088.589.324.442-.059-.354.442.943.295,2.592.383,3.623.206,2.356.324,4.713.383,7.069.029,2.356,0,4.713-.147,7.1-.059,1.09-.147,2.15-.236,3.24-.059.618-.118,1.208-.177,1.826q-.044.4-.088.8c-.029.206-.148,1.62-.059.618.059-.913,0,0-.03.236-.059.324-.089.677-.147,1q-.132.8-.265,1.591c-.206,1.208-.442,2.386-.677,3.593-.5,2.327-1.061,4.624-1.739,6.922s-1.415,4.565-2.24,6.8c-.413,1.09-.854,2.18-1.267,3.24-.295.766.442-1,.118-.265-.118.265-.206.5-.324.766-.265.619-.56,1.266-.855,1.885a97.318,97.318,0,0,1-7.131,12.695c-.678,1-1.356,1.974-2.033,2.945-.324.471-.678.913-1,1.355-.177.206-.324.471-.5.677.972-1.119.088-.118-.118.147-1.562,1.974-3.183,3.859-4.892,5.714a101.962,101.962,0,0,1-11.286,10.4c-.236.177-.8.736.177-.147-.206.177-.471.353-.677.5-.442.354-.914.677-1.356,1-1.031.736-2.063,1.473-3.123,2.15-2.092,1.384-4.244,2.71-6.424,3.917q-3.094,1.723-6.277,3.181c-.56.265-1.12.5-1.68.766-.265.118-.5.206-.766.324-.737.324,1.031-.412.266-.118q-1.813.751-3.625,1.414a97.221,97.221,0,0,1-13.732,3.917c-1.061.206-2.122.412-3.183.589-.589.088-1.208.206-1.8.294-.265.03-.53.089-.8.118-.972.147-.324.206.147-.029-.884.442-2.652.295-3.625.383q-1.813.177-3.625.265a99.056,99.056,0,0,1-14.174-.295,11.559,11.559,0,0,1-3.212-.353c1.031.5.8.118.147.029-.265-.029-.53-.088-.8-.118-.678-.088-1.326-.206-2-.324-2.328-.412-4.656-.884-6.955-1.473s-4.6-1.237-6.866-2c-2.269-.736-4.45-1.8-6.719-2.5.147.059,1.238.53.265.118-.265-.118-.5-.206-.766-.324-.56-.265-1.12-.5-1.68-.766-1.12-.53-2.24-1.06-3.359-1.65-2.151-1.119-4.273-2.3-6.365-3.564-2.092-1.3-4.126-2.651-6.129-4.094-.5-.383-1.032-.766-1.533-1.149-.236-.177-.914-.648.177.147-.236-.177-.442-.353-.678-.53-1-.8-2-1.62-2.976-2.445a99.3,99.3,0,0,1-10.7-10.721q-1.194-1.37-2.3-2.828c-.118-.147-.678-.884-.206-.236.589.766-.265-.353-.324-.412-.383-.5-.766-1.031-1.12-1.532-1.444-2-2.8-4.035-4.067-6.126-1.267-2.062-2.446-4.212-3.536-6.362C126,246.919,125.5,245.859,125,244.8c-.236-.5-.471-1-.678-1.5-.147-.324-.265-.618-.412-.942-.295-.677.442,1.119.029.088a99.247,99.247,0,0,1-4.45-13.608c-.589-2.356-1.09-4.772-1.473-7.157q-.133-.8-.265-1.59c-.029-.265-.089-.53-.118-.8-.147-1.06.03.206.059.354-.059-1.208-.294-2.415-.383-3.623a98.868,98.868,0,0,1-.235-14.167q.088-1.811.265-3.623c.059-.53.118-1.09.177-1.62l.088-.8c.059-.412,0-1.649,0-.029a38.252,38.252,0,0,1,1.179-6.8,99.928,99.928,0,0,1,4.037-13.9c.412-1.09.943-2.15,1.3-3.24-.059.147-.531,1.237-.118.265.118-.265.206-.5.324-.766.265-.618.56-1.266.854-1.885,1.031-2.18,2.151-4.33,3.33-6.451,1.208-2.121,2.476-4.212,3.86-6.244.619-.943,1.267-1.856,1.945-2.769.383-.53.736-1.031,1.12-1.531.118-.147.678-.913.177-.236-.53.707.354-.442.472-.589A99.11,99.11,0,0,1,146.4,140.56c1.856-1.708,3.772-3.3,5.717-4.86.884-.707-.088.118-.177.147a7.869,7.869,0,0,0,.678-.5c.5-.383,1.031-.766,1.532-1.119,1.031-.736,2.063-1.473,3.123-2.15A95.916,95.916,0,0,1,170,125.008c.56-.265,1.12-.5,1.68-.766.236-.118.531-.206.766-.324-.147.059-1.238.5-.265.118,1.149-.471,2.3-.913,3.448-1.355q3.359-1.237,6.807-2.209c2.3-.648,4.6-1.208,6.925-1.708,1.12-.236,2.269-.442,3.389-.648.589-.088,1.208-.206,1.8-.295.265-.029.531-.088.8-.118,1.208-.177-1.267.147.029,0A103.432,103.432,0,0,1,209.517,117c2.3.059,4.6.177,6.866.412.619.059,1.208.118,1.827.177l.8.088c.236.029,1.12.089.236.029-1.031-.059.295.029.412.059.265.029.53.088.8.118.678.088,1.326.206,2,.324a96.933,96.933,0,0,1,13.82,3.5,43.715,43.715,0,0,1,6.542,2.445c-1.5-.8.354.147.678.294.56.265,1.12.5,1.68.766,1.12.53,2.24,1.09,3.33,1.649a95.336,95.336,0,0,1,12.465,7.717c.471.324.914.677,1.355,1,.884.648-.118-.029-.177-.147a4.538,4.538,0,0,0,.678.53c1,.8,2,1.62,2.976,2.445,1.768,1.532,3.566,3.21,5.3,4.948a5.9,5.9,0,1,0,8.34-8.336,102.219,102.219,0,0,0-54.752-28.394,103.838,103.838,0,0,0-60.97,8.159,102.051,102.051,0,0,0-58.288,101.764,102.222,102.222,0,0,0,187.153,46.891,102.08,102.08,0,0,0-2.652-116.108,109.184,109.184,0,0,0-10.461-12.282,5.9,5.9,0,0,0-8.369,8.306Z" transform="translate(-104.99 -105.18)" fill="#acacac"/>
      </g>
    </g>
    <g id="Group_1283" data-name="Group 1283" transform="translate(269.425 269.458)">
      <g id="Group_1282" data-name="Group 1282" transform="translate(0 0)">
        <path id="Path_2237" data-name="Path 2237" d="M664.678,672.959l21.511,21.5,34.3,34.285,7.9,7.893a5.895,5.895,0,0,0,8.339-8.334q-10.741-10.737-21.511-21.5-17.15-17.142-34.3-34.285l-7.9-7.893a5.895,5.895,0,1,0-8.339,8.334Z" transform="translate(-662.998 -662.923)" fill="#acacac"/>
      </g>
    </g>
  </g>
</svg>
